<?xml version="1.0" encoding="UTF-8" standalone="no"?>
<!DOCTYPE svg PUBLIC "-//W3C//DTD SVG 1.1//EN"
 "http://www.w3.org/Graphics/SVG/1.1/DTD/svg11.dtd">
<!-- Generated by graphviz version 2.43.0 (0)
 -->
<!-- Title: dag Pages: 1 -->
<svg width="346pt" height="756pt"
 viewBox="0.00 0.00 345.60 755.80" xmlns="http://www.w3.org/2000/svg" xmlns:xlink="http://www.w3.org/1999/xlink">
<g id="graph0" class="graph" transform="scale(1 1) rotate(0) translate(4 751.8)">
<title>dag</title>
<polygon fill="white" stroke="transparent" points="-4,4 -4,-751.8 341.6,-751.8 341.6,4 -4,4"/>
<!-- v0 -->
<g id="node1" class="node">
<title>v0</title>
<ellipse fill="black" stroke="black" cx="133.6" cy="-729.2" rx="3.6" ry="3.6"/>
<text text-anchor="middle" x="65" y="-736.6" font-family="Times,serif" font-size="14.00">Channel.fromPath</text>
</g>
<!-- v1 -->
<g id="node2" class="node">
<title>v1</title>
<ellipse fill="none" stroke="black" cx="133.6" cy="-685.1" rx="3.5" ry="3.5"/>
<text text-anchor="middle" x="101.1" y="-692.4" font-family="Times,serif" font-size="14.00">splitCsv</text>
</g>
<!-- v0&#45;&gt;v1 -->
<g id="edge1" class="edge">
<title>v0&#45;&gt;v1</title>
<path fill="none" stroke="black" d="M133.6,-725.44C133.6,-720.15 133.6,-708.28 133.6,-698.95"/>
<polygon fill="black" stroke="black" points="137.1,-698.93 133.6,-688.93 130.1,-698.93 137.1,-698.93"/>
</g>
<!-- v2 -->
<g id="node3" class="node">
<title>v2</title>
<ellipse fill="none" stroke="black" cx="133.6" cy="-641.1" rx="3.5" ry="3.5"/>
<text text-anchor="middle" x="114.6" y="-648.4" font-family="Times,serif" font-size="14.00">map</text>
</g>
<!-- v1&#45;&gt;v2 -->
<g id="edge2" class="edge">
<title>v1&#45;&gt;v2</title>
<path fill="none" stroke="black" d="M133.6,-681.34C133.6,-676.07 133.6,-664.23 133.6,-654.92"/>
<polygon fill="black" stroke="black" points="137.1,-654.92 133.6,-644.92 130.1,-654.92 137.1,-654.92"/>
</g>
<!-- v3 -->
<g id="node4" class="node">
<title>v3</title>
<ellipse fill="none" stroke="black" cx="133.6" cy="-568.6" rx="73.39" ry="18"/>
<text text-anchor="middle" x="133.6" y="-564.9" font-family="Times,serif" font-size="14.00">FETCH_DATA</text>
</g>
<!-- v2&#45;&gt;v3 -->
<g id="edge3" class="edge">
<title>v2&#45;&gt;v3</title>
<path fill="none" stroke="black" d="M133.6,-637.42C133.6,-630.76 133.6,-612.84 133.6,-597.09"/>
<polygon fill="black" stroke="black" points="137.1,-596.7 133.6,-586.7 130.1,-596.7 137.1,-596.7"/>
<text text-anchor="middle" x="174.6" y="-608.4" font-family="Times,serif" font-size="14.00">samples_ch</text>
</g>
<!-- v4 -->
<g id="node5" class="node">
<title>v4</title>
<ellipse fill="none" stroke="black" cx="86.6" cy="-495.6" rx="3.5" ry="3.5"/>
<text text-anchor="middle" x="67.6" y="-502.9" font-family="Times,serif" font-size="14.00">map</text>
</g>
<!-- v3&#45;&gt;v4 -->
<g id="edge4" class="edge">
<title>v3&#45;&gt;v4</title>
<path fill="none" stroke="black" d="M122.46,-550.77C113.57,-537.35 101.39,-518.94 93.76,-507.42"/>
<polygon fill="black" stroke="black" points="96.53,-505.26 88.09,-498.86 90.7,-509.13 96.53,-505.26"/>
</g>
<!-- v7 -->
<g id="node9" class="node">
<title>v7</title>
<ellipse fill="none" stroke="black" cx="190.6" cy="-495.6" rx="74.19" ry="18"/>
<text text-anchor="middle" x="190.6" y="-491.9" font-family="Times,serif" font-size="14.00">TRIM_READS</text>
</g>
<!-- v3&#45;&gt;v7 -->
<g id="edge8" class="edge">
<title>v3&#45;&gt;v7</title>
<path fill="none" stroke="black" d="M147.11,-550.77C154.21,-541.93 163.04,-530.93 170.89,-521.15"/>
<polygon fill="black" stroke="black" points="173.66,-523.29 177.19,-513.31 168.2,-518.91 173.66,-523.29"/>
</g>
<!-- v5 -->
<g id="node6" class="node">
<title>v5</title>
<ellipse fill="none" stroke="black" cx="77.6" cy="-408.6" rx="75.29" ry="18"/>
<text text-anchor="middle" x="77.6" y="-404.9" font-family="Times,serif" font-size="14.00">FASTQC_RAW</text>
</g>
<!-- v4&#45;&gt;v5 -->
<g id="edge5" class="edge">
<title>v4&#45;&gt;v5</title>
<path fill="none" stroke="black" d="M86.3,-491.77C85.4,-483.28 82.66,-457.35 80.49,-436.87"/>
<polygon fill="black" stroke="black" points="83.95,-436.34 79.42,-426.77 76.99,-437.08 83.95,-436.34"/>
<text text-anchor="middle" x="132.1" y="-448.4" font-family="Times,serif" font-size="14.00">raw_reads_ch</text>
</g>
<!-- v6 -->
<g id="node7" class="node">
<title>v6</title>
<ellipse fill="black" stroke="black" cx="47.6" cy="-321.6" rx="1.8" ry="1.8"/>
</g>
<!-- v5&#45;&gt;v6 -->
<g id="edge6" class="edge">
<title>v5&#45;&gt;v6</title>
<path fill="none" stroke="black" d="M70.52,-390.6C68.23,-384.91 65.73,-378.51 63.6,-372.6 58.8,-359.24 53.92,-343.63 50.83,-333.45"/>
<polygon fill="black" stroke="black" points="54.18,-332.43 47.96,-323.85 47.47,-334.43 54.18,-332.43"/>
</g>
<!-- v11 -->
<g id="node8" class="node">
<title>v11</title>
<ellipse fill="none" stroke="black" cx="194.6" cy="-263.1" rx="3.5" ry="3.5"/>
<text text-anchor="middle" x="177.6" y="-270.4" font-family="Times,serif" font-size="14.00">mix</text>
</g>
<!-- v5&#45;&gt;v11 -->
<g id="edge7" class="edge">
<title>v5&#45;&gt;v11</title>
<path fill="none" stroke="black" d="M76.01,-390.43C74.87,-367.95 76.3,-328.49 96.6,-303.6 118.02,-277.34 159.55,-268.41 181.02,-265.47"/>
<polygon fill="black" stroke="black" points="181.68,-268.92 191.24,-264.34 180.91,-261.97 181.68,-268.92"/>
</g>
<!-- v12 -->
<g id="node11" class="node">
<title>v12</title>
<ellipse fill="none" stroke="black" cx="259.6" cy="-219.1" rx="3.5" ry="3.5"/>
<text text-anchor="middle" x="242.6" y="-226.4" font-family="Times,serif" font-size="14.00">mix</text>
</g>
<!-- v11&#45;&gt;v12 -->
<g id="edge14" class="edge">
<title>v11&#45;&gt;v12</title>
<path fill="none" stroke="black" d="M197.07,-260.5C205.43,-255.1 233.05,-237.25 248.64,-227.18"/>
<polygon fill="black" stroke="black" points="250.63,-230.06 257.13,-221.7 246.83,-224.18 250.63,-230.06"/>
</g>
<!-- v8 -->
<g id="node10" class="node">
<title>v8</title>
<ellipse fill="none" stroke="black" cx="190.6" cy="-408.6" rx="3.5" ry="3.5"/>
<text text-anchor="middle" x="171.6" y="-415.9" font-family="Times,serif" font-size="14.00">map</text>
</g>
<!-- v7&#45;&gt;v8 -->
<g id="edge9" class="edge">
<title>v7&#45;&gt;v8</title>
<path fill="none" stroke="black" d="M190.6,-477.4C190.6,-461.21 190.6,-437.31 190.6,-422.64"/>
<polygon fill="black" stroke="black" points="194.1,-422.24 190.6,-412.24 187.1,-422.24 194.1,-422.24"/>
</g>
<!-- v7&#45;&gt;v12 -->
<g id="edge10" class="edge">
<title>v7&#45;&gt;v12</title>
<path fill="none" stroke="black" d="M249.54,-484.63C290.44,-473.94 337.6,-452.35 337.6,-409.6 337.6,-409.6 337.6,-409.6 337.6,-262.1 337.6,-233.17 295.48,-224.08 273.14,-221.29"/>
<polygon fill="black" stroke="black" points="273.25,-217.78 262.95,-220.29 272.56,-224.75 273.25,-217.78"/>
</g>
<!-- v9 -->
<g id="node12" class="node">
<title>v9</title>
<ellipse fill="none" stroke="black" cx="207.6" cy="-321.6" rx="102.08" ry="18"/>
<text text-anchor="middle" x="207.6" y="-317.9" font-family="Times,serif" font-size="14.00">FASTQC_TRIMMED</text>
</g>
<!-- v8&#45;&gt;v9 -->
<g id="edge11" class="edge">
<title>v8&#45;&gt;v9</title>
<path fill="none" stroke="black" d="M190.27,-404.84C189.43,-397.21 187.58,-375.21 191.6,-357.6 192.26,-354.73 193.16,-351.81 194.21,-348.94"/>
<polygon fill="black" stroke="black" points="197.51,-350.13 198.17,-339.55 191.06,-347.41 197.51,-350.13"/>
<text text-anchor="middle" x="257.6" y="-361.4" font-family="Times,serif" font-size="14.00">trimmed_reads_ch</text>
</g>
<!-- v13 -->
<g id="node14" class="node">
<title>v13</title>
<ellipse fill="none" stroke="black" cx="259.6" cy="-175.1" rx="3.5" ry="3.5"/>
<text text-anchor="middle" x="240.6" y="-182.4" font-family="Times,serif" font-size="14.00">map</text>
</g>
<!-- v12&#45;&gt;v13 -->
<g id="edge15" class="edge">
<title>v12&#45;&gt;v13</title>
<path fill="none" stroke="black" d="M259.6,-215.34C259.6,-210.07 259.6,-198.23 259.6,-188.92"/>
<polygon fill="black" stroke="black" points="263.1,-188.92 259.6,-178.92 256.1,-188.92 263.1,-188.92"/>
</g>
<!-- v9&#45;&gt;v11 -->
<g id="edge13" class="edge">
<title>v9&#45;&gt;v11</title>
<path fill="none" stroke="black" d="M203.63,-303.34C201.63,-294.65 199.25,-284.32 197.44,-276.44"/>
<polygon fill="black" stroke="black" points="200.84,-275.62 195.19,-266.66 194.02,-277.19 200.84,-275.62"/>
</g>
<!-- v10 -->
<g id="node13" class="node">
<title>v10</title>
<ellipse fill="black" stroke="black" cx="219.6" cy="-263.1" rx="1.8" ry="1.8"/>
</g>
<!-- v9&#45;&gt;v10 -->
<g id="edge12" class="edge">
<title>v9&#45;&gt;v10</title>
<path fill="none" stroke="black" d="M211.27,-303.34C213.22,-294.14 215.57,-283.1 217.27,-275.07"/>
<polygon fill="black" stroke="black" points="220.73,-275.61 219.39,-265.1 213.89,-274.16 220.73,-275.61"/>
</g>
<!-- v14 -->
<g id="node15" class="node">
<title>v14</title>
<ellipse fill="none" stroke="black" cx="259.6" cy="-131.1" rx="3.5" ry="3.5"/>
<text text-anchor="middle" x="232.6" y="-138.4" font-family="Times,serif" font-size="14.00">collect</text>
</g>
<!-- v13&#45;&gt;v14 -->
<g id="edge16" class="edge">
<title>v13&#45;&gt;v14</title>
<path fill="none" stroke="black" d="M259.6,-171.34C259.6,-166.07 259.6,-154.23 259.6,-144.92"/>
<polygon fill="black" stroke="black" points="263.1,-144.92 259.6,-134.92 256.1,-144.92 263.1,-144.92"/>
</g>
<!-- v15 -->
<g id="node16" class="node">
<title>v15</title>
<ellipse fill="none" stroke="black" cx="259.6" cy="-58.6" rx="56.59" ry="18"/>
<text text-anchor="middle" x="259.6" y="-54.9" font-family="Times,serif" font-size="14.00">MULTIQC</text>
</g>
<!-- v14&#45;&gt;v15 -->
<g id="edge17" class="edge">
<title>v14&#45;&gt;v15</title>
<path fill="none" stroke="black" d="M259.6,-127.42C259.6,-120.76 259.6,-102.84 259.6,-87.09"/>
<polygon fill="black" stroke="black" points="263.1,-86.7 259.6,-76.7 256.1,-86.7 263.1,-86.7"/>
<text text-anchor="middle" x="298.1" y="-98.4" font-family="Times,serif" font-size="14.00">all_qc_files</text>
</g>
<!-- v17 -->
<g id="node17" class="node">
<title>v17</title>
<ellipse fill="black" stroke="black" cx="247.6" cy="-1.8" rx="1.8" ry="1.8"/>
</g>
<!-- v15&#45;&gt;v17 -->
<g id="edge18" class="edge">
<title>v15&#45;&gt;v17</title>
<path fill="none" stroke="black" d="M255.87,-40.56C253.94,-31.76 251.65,-21.3 249.97,-13.61"/>
<polygon fill="black" stroke="black" points="253.37,-12.78 247.81,-3.76 246.53,-14.28 253.37,-12.78"/>
</g>
<!-- v16 -->
<g id="node18" class="node">
<title>v16</title>
<ellipse fill="black" stroke="black" cx="272.6" cy="-1.8" rx="1.8" ry="1.8"/>
</g>
<!-- v15&#45;&gt;v16 -->
<g id="edge19" class="edge">
<title>v15&#45;&gt;v16</title>
<path fill="none" stroke="black" d="M263.64,-40.56C265.73,-31.76 268.21,-21.3 270.03,-13.61"/>
<polygon fill="black" stroke="black" points="273.47,-14.3 272.37,-3.76 266.66,-12.68 273.47,-14.3"/>
</g>
</g>
</svg>
